# xmcd
#
# Track frame offsets:
#	150
#	11289
#	23997
#	39660
#	52539
#	61053
#	74487
#	94410
#	107280
#	120357
#	131943
#	142674
#	154791
#	168306
#	191643
#	202626
#	213300
#	224670
#	240387
#	253722
#
# Disc length: 3547 seconds
#
# Revision: 2
# Processed by: cddbd v1.5.2PL0 Copyright (c) Steve Scherf et al.
# Submitted via: audiograbber 1.83.01
#
DISCID=0a0dd914
DTITLE=Various / Années 60 CD1
DYEAR=2004
DGENRE=Misc
TTITLE0=THE EQUALS / Baby Come Back
TTITLE1=HERMAN HERMITS / No Milk Today
TTITLE2=MUNGO JERRY / In The Summertime
TTITLE3=THE EASYBEATS / Friday on my Mind
TTITLE4=THE BOX TOPS / The Letter
TTITLE5=LOS BRAVOS / Black is Black
TTITLE6=THE ANIMALS / House of The Rising Sun
TTITLE7=THE SHANGRI LAS / Leader Of The Pack
TTITLE8=THE TURTLES / Happy Together
TTITLE9=PAT BOONE / Speedy Gonzales
TTITLE10=THE RIVINGTONS / Papa Oom Mow Mow
TTITLE11=THE TOKENS / The Lion Sleeps Tonight
TTITLE12=MARMALADE / Ob-La-DI, Ob-La-Da
TTITLE13=THE SAVAGE YOUNG BEATLES / Ya Ya
TTITLE14=THE DRIFTERS / Save The Last Dance For Me
TTITLE15=THE OVERLANDERS / Michelle
TTITLE16=THE SAVAGE YOUNG BEATLES / Let's Dance
TTITLE17=TONY BURROWS OF THE FLOWERPOT MEN / Lets Go In yon Francisco
TTITLE18=BJ THOMAS / Raindrops Keep Fallin' On My Head
TTITLE19=THE TREMOLOES / Suddenly You Love Me
EXTD=
EXTT0=
EXTT1=
EXTT2=
EXTT3=
EXTT4=
EXTT5=
EXTT6=
EXTT7=
EXTT8=
EXTT9=
EXTT10=
EXTT11=
EXTT12=
EXTT13=
EXTT14=
EXTT15=
EXTT16=
EXTT17=
EXTT18=
EXTT19=
PLAYORDER=
